<svg xmlns="http://www.w3.org/2000/svg" viewBox="0 0 1600 420"><defs><linearGradient id="bg" x1="0" y1="0" x2="1" y2="1"><stop stop-color="#2b0718"/><stop offset="1" stop-color="#6d2316"/></linearGradient><radialGradient id="glow"><stop stop-color="#ff6a3d" stop-opacity=".8"/><stop offset="1" stop-color="#ff6a3d" stop-opacity="0"/></radialGradient><filter id="blur"><feGaussianBlur stdDeviation="14"/></filter></defs><rect width="1600" height="420" fill="url(#bg)"/><circle cx="1240" cy="60" r="330" fill="url(#glow)"/><circle cx="300" cy="410" r="280" fill="url(#glow)" opacity=".35"/><g fill="none" stroke="#ff6a3d" stroke-opacity=".34"><path d="M980 390c-120-115-25-185 15-245 5 75 70 78 43 165 78-47 100-113 79-180 137 138 82 288-137 260z" stroke-width="11"/><path d="M0 280c350-130 520-80 780 45s490 80 820-110" stroke-width="3"/></g><g fill="#ff6a3d" opacity=".8" filter="url(#blur)"><circle cx="1050" cy="110" r="32"/><circle cx="1310" cy="260" r="45"/><circle cx="890" cy="350" r="28"/></g><text x="980" y="205" fill="#fff" fill-opacity=".12" font-family="Arial Black,Impact,sans-serif" font-size="150" letter-spacing="-10">HEAT</text></svg>